<svg xmlns="http://www.w3.org/2000/svg" width="88" height="68.039" viewBox="0 0 88 68.039">
  <path id="quote-right-solid" d="M79.75,32h-22c-4.555,0-8.25,3.265-8.25,7.29V58.73c0,4.025,3.7,7.29,8.25,7.29H71.5v9.72c0,5.361-4.933,9.72-11,9.72H59.125A3.9,3.9,0,0,0,55,89.1v7.29a3.9,3.9,0,0,0,4.125,3.645H60.5c15.194,0,27.5-10.874,27.5-24.3V39.29C88,35.265,84.3,32,79.75,32Zm-49.5,0h-22C3.7,32,0,35.265,0,39.29V58.73c0,4.025,3.7,7.29,8.25,7.29H22v9.72c0,5.361-4.933,9.72-11,9.72H9.625A3.9,3.9,0,0,0,5.5,89.1v7.29a3.9,3.9,0,0,0,4.125,3.645H11c15.194,0,27.5-10.874,27.5-24.3V39.29C38.5,35.265,34.8,32,30.25,32Z" transform="translate(0 -32)" style="mix-blend-mode: luminosity;isolation: isolate"/>
</svg>
